<mxfile host="Electron" agent="Mozilla/5.0 (Windows NT 10.0; Win64; x64) AppleWebKit/537.36 (KHTML, like Gecko) draw.io/25.0.2 Chrome/128.0.6613.186 Electron/32.2.5 Safari/537.36" version="25.0.2">
  <diagram name="Página-1" id="j-M4P_ebFDfCyMNvQPKn">
    <mxGraphModel dx="1036" dy="614" grid="1" gridSize="10" guides="1" tooltips="1" connect="1" arrows="1" fold="1" page="1" pageScale="1" pageWidth="827" pageHeight="1169" math="0" shadow="0">
      <root>
        <mxCell id="0" />
        <mxCell id="1" parent="0" />
        <mxCell id="OgSvtFt-3acENDD38ZR3-12" style="edgeStyle=orthogonalEdgeStyle;rounded=0;orthogonalLoop=1;jettySize=auto;html=1;entryX=0.5;entryY=0;entryDx=0;entryDy=0;fontSize=20;" edge="1" parent="1" source="OgSvtFt-3acENDD38ZR3-1" target="OgSvtFt-3acENDD38ZR3-11">
          <mxGeometry relative="1" as="geometry" />
        </mxCell>
        <mxCell id="OgSvtFt-3acENDD38ZR3-1" value="início" style="rounded=1;whiteSpace=wrap;html=1;fontSize=20;" vertex="1" parent="1">
          <mxGeometry x="360" y="10" width="120" height="50" as="geometry" />
        </mxCell>
        <mxCell id="OgSvtFt-3acENDD38ZR3-15" style="edgeStyle=orthogonalEdgeStyle;rounded=0;orthogonalLoop=1;jettySize=auto;html=1;" edge="1" parent="1" source="OgSvtFt-3acENDD38ZR3-11" target="OgSvtFt-3acENDD38ZR3-14">
          <mxGeometry relative="1" as="geometry" />
        </mxCell>
        <mxCell id="OgSvtFt-3acENDD38ZR3-11" value="n1, n2 e n3" style="html=1;strokeWidth=2;shape=manualInput;whiteSpace=wrap;rounded=1;size=26;arcSize=11;fontSize=20;" vertex="1" parent="1">
          <mxGeometry x="370" y="110" width="130" height="60" as="geometry" />
        </mxCell>
        <mxCell id="OgSvtFt-3acENDD38ZR3-17" style="edgeStyle=orthogonalEdgeStyle;rounded=0;orthogonalLoop=1;jettySize=auto;html=1;" edge="1" parent="1" source="OgSvtFt-3acENDD38ZR3-14" target="OgSvtFt-3acENDD38ZR3-16">
          <mxGeometry relative="1" as="geometry" />
        </mxCell>
        <mxCell id="OgSvtFt-3acENDD38ZR3-14" value="média= (n1+n2+n3)/3" style="rounded=0;whiteSpace=wrap;html=1;fontSize=20;" vertex="1" parent="1">
          <mxGeometry x="375" y="210" width="120" height="60" as="geometry" />
        </mxCell>
        <mxCell id="OgSvtFt-3acENDD38ZR3-18" style="edgeStyle=orthogonalEdgeStyle;rounded=0;orthogonalLoop=1;jettySize=auto;html=1;entryX=1;entryY=0.5;entryDx=0;entryDy=0;entryPerimeter=0;" edge="1" parent="1" source="OgSvtFt-3acENDD38ZR3-16" target="OgSvtFt-3acENDD38ZR3-19">
          <mxGeometry relative="1" as="geometry">
            <mxPoint x="260" y="360" as="targetPoint" />
          </mxGeometry>
        </mxCell>
        <mxCell id="OgSvtFt-3acENDD38ZR3-24" style="edgeStyle=orthogonalEdgeStyle;rounded=0;orthogonalLoop=1;jettySize=auto;html=1;entryX=0.5;entryY=0;entryDx=0;entryDy=0;" edge="1" parent="1" source="OgSvtFt-3acENDD38ZR3-16" target="OgSvtFt-3acENDD38ZR3-23">
          <mxGeometry relative="1" as="geometry">
            <mxPoint x="650" y="350" as="targetPoint" />
          </mxGeometry>
        </mxCell>
        <mxCell id="OgSvtFt-3acENDD38ZR3-16" value="média&amp;gt;=0 e média&amp;lt;=4" style="rhombus;whiteSpace=wrap;html=1;fontSize=20;" vertex="1" parent="1">
          <mxGeometry x="360" y="310" width="200" height="80" as="geometry" />
        </mxCell>
        <mxCell id="OgSvtFt-3acENDD38ZR3-19" value="&quot;Reprovado&quot;" style="strokeWidth=2;html=1;shape=mxgraph.flowchart.document2;whiteSpace=wrap;size=0.25;fontSize=17;" vertex="1" parent="1">
          <mxGeometry x="130" y="320" width="100" height="60" as="geometry" />
        </mxCell>
        <mxCell id="OgSvtFt-3acENDD38ZR3-20" value="Sim" style="text;html=1;align=center;verticalAlign=middle;whiteSpace=wrap;rounded=0;fontSize=16;" vertex="1" parent="1">
          <mxGeometry x="250" y="320" width="60" height="30" as="geometry" />
        </mxCell>
        <mxCell id="OgSvtFt-3acENDD38ZR3-30" style="edgeStyle=orthogonalEdgeStyle;rounded=0;orthogonalLoop=1;jettySize=auto;html=1;entryX=0.5;entryY=0;entryDx=0;entryDy=0;" edge="1" parent="1" source="OgSvtFt-3acENDD38ZR3-23" target="OgSvtFt-3acENDD38ZR3-31">
          <mxGeometry relative="1" as="geometry">
            <mxPoint x="800" y="580" as="targetPoint" />
          </mxGeometry>
        </mxCell>
        <mxCell id="OgSvtFt-3acENDD38ZR3-23" value="média &amp;gt;4 e média &amp;lt;7" style="rhombus;whiteSpace=wrap;html=1;fontSize=17;" vertex="1" parent="1">
          <mxGeometry x="570" y="410" width="180" height="110" as="geometry" />
        </mxCell>
        <mxCell id="OgSvtFt-3acENDD38ZR3-25" value="Não" style="text;html=1;align=center;verticalAlign=middle;whiteSpace=wrap;rounded=0;fontSize=17;" vertex="1" parent="1">
          <mxGeometry x="570" y="320" width="60" height="30" as="geometry" />
        </mxCell>
        <mxCell id="OgSvtFt-3acENDD38ZR3-41" style="edgeStyle=orthogonalEdgeStyle;rounded=0;orthogonalLoop=1;jettySize=auto;html=1;entryX=0;entryY=0.75;entryDx=0;entryDy=0;exitX=0.817;exitY=0.672;exitDx=0;exitDy=0;exitPerimeter=0;" edge="1" parent="1" source="OgSvtFt-3acENDD38ZR3-26" target="OgSvtFt-3acENDD38ZR3-40">
          <mxGeometry relative="1" as="geometry">
            <Array as="points">
              <mxPoint x="410" y="484" />
              <mxPoint x="410" y="865" />
            </Array>
          </mxGeometry>
        </mxCell>
        <mxCell id="OgSvtFt-3acENDD38ZR3-26" value="&quot;Recuperação&quot;" style="shape=document;whiteSpace=wrap;html=1;boundedLbl=1;fontSize=18;" vertex="1" parent="1">
          <mxGeometry x="310" y="430" width="120" height="80" as="geometry" />
        </mxCell>
        <mxCell id="OgSvtFt-3acENDD38ZR3-27" style="edgeStyle=orthogonalEdgeStyle;rounded=0;orthogonalLoop=1;jettySize=auto;html=1;entryX=0.988;entryY=0.382;entryDx=0;entryDy=0;entryPerimeter=0;" edge="1" parent="1" source="OgSvtFt-3acENDD38ZR3-23" target="OgSvtFt-3acENDD38ZR3-26">
          <mxGeometry relative="1" as="geometry" />
        </mxCell>
        <mxCell id="OgSvtFt-3acENDD38ZR3-28" value="Sim" style="text;html=1;align=center;verticalAlign=middle;whiteSpace=wrap;rounded=0;fontSize=16;" vertex="1" parent="1">
          <mxGeometry x="495" y="430" width="60" height="30" as="geometry" />
        </mxCell>
        <mxCell id="OgSvtFt-3acENDD38ZR3-38" style="edgeStyle=orthogonalEdgeStyle;rounded=0;orthogonalLoop=1;jettySize=auto;html=1;entryX=0;entryY=0.25;entryDx=0;entryDy=0;" edge="1" parent="1" source="OgSvtFt-3acENDD38ZR3-31" target="OgSvtFt-3acENDD38ZR3-37">
          <mxGeometry relative="1" as="geometry" />
        </mxCell>
        <mxCell id="OgSvtFt-3acENDD38ZR3-31" value="média &amp;gt;=7 e média &amp;gt;=10" style="rhombus;whiteSpace=wrap;html=1;fontSize=17;" vertex="1" parent="1">
          <mxGeometry x="770" y="570" width="190" height="110" as="geometry" />
        </mxCell>
        <mxCell id="OgSvtFt-3acENDD38ZR3-32" value="Não" style="text;html=1;align=center;verticalAlign=middle;whiteSpace=wrap;rounded=0;fontSize=16;" vertex="1" parent="1">
          <mxGeometry x="780" y="430" width="60" height="30" as="geometry" />
        </mxCell>
        <mxCell id="OgSvtFt-3acENDD38ZR3-33" value="&quot;Aprovado&quot;" style="shape=document;whiteSpace=wrap;html=1;boundedLbl=1;fontSize=18;" vertex="1" parent="1">
          <mxGeometry x="550" y="600" width="120" height="80" as="geometry" />
        </mxCell>
        <mxCell id="OgSvtFt-3acENDD38ZR3-35" style="edgeStyle=orthogonalEdgeStyle;rounded=0;orthogonalLoop=1;jettySize=auto;html=1;entryX=1.01;entryY=0.338;entryDx=0;entryDy=0;entryPerimeter=0;" edge="1" parent="1" source="OgSvtFt-3acENDD38ZR3-31" target="OgSvtFt-3acENDD38ZR3-33">
          <mxGeometry relative="1" as="geometry" />
        </mxCell>
        <mxCell id="OgSvtFt-3acENDD38ZR3-36" value="Sim" style="text;html=1;align=center;verticalAlign=middle;whiteSpace=wrap;rounded=0;fontSize=16;" vertex="1" parent="1">
          <mxGeometry x="680" y="590" width="60" height="30" as="geometry" />
        </mxCell>
        <mxCell id="OgSvtFt-3acENDD38ZR3-43" style="edgeStyle=orthogonalEdgeStyle;rounded=0;orthogonalLoop=1;jettySize=auto;html=1;entryX=1;entryY=0.5;entryDx=0;entryDy=0;" edge="1" parent="1" source="OgSvtFt-3acENDD38ZR3-37" target="OgSvtFt-3acENDD38ZR3-40">
          <mxGeometry relative="1" as="geometry">
            <Array as="points">
              <mxPoint x="1020" y="640" />
              <mxPoint x="1020" y="850" />
            </Array>
          </mxGeometry>
        </mxCell>
        <mxCell id="OgSvtFt-3acENDD38ZR3-37" value="&quot;Erro de digitação&quot;" style="shape=document;whiteSpace=wrap;html=1;boundedLbl=1;fontSize=18;" vertex="1" parent="1">
          <mxGeometry x="1030" y="600" width="120" height="80" as="geometry" />
        </mxCell>
        <mxCell id="OgSvtFt-3acENDD38ZR3-39" value="Não" style="text;html=1;align=center;verticalAlign=middle;whiteSpace=wrap;rounded=0;fontSize=17;" vertex="1" parent="1">
          <mxGeometry x="960" y="585" width="60" height="30" as="geometry" />
        </mxCell>
        <mxCell id="OgSvtFt-3acENDD38ZR3-40" value="Fim" style="rounded=1;whiteSpace=wrap;html=1;fontSize=18;" vertex="1" parent="1">
          <mxGeometry x="810" y="820" width="120" height="60" as="geometry" />
        </mxCell>
        <mxCell id="OgSvtFt-3acENDD38ZR3-42" style="edgeStyle=orthogonalEdgeStyle;rounded=0;orthogonalLoop=1;jettySize=auto;html=1;entryX=0.123;entryY=0.077;entryDx=0;entryDy=0;entryPerimeter=0;" edge="1" parent="1" source="OgSvtFt-3acENDD38ZR3-33" target="OgSvtFt-3acENDD38ZR3-40">
          <mxGeometry relative="1" as="geometry">
            <Array as="points">
              <mxPoint x="760" y="640" />
              <mxPoint x="760" y="825" />
            </Array>
          </mxGeometry>
        </mxCell>
      </root>
    </mxGraphModel>
  </diagram>
</mxfile>
